<mxfile host="65bd71144e">
    <diagram id="lkt1cN9q1OfBGLAIrQv-" name="Page-1">
        <mxGraphModel dx="746" dy="427" grid="1" gridSize="10" guides="1" tooltips="1" connect="1" arrows="1" fold="1" page="1" pageScale="1" pageWidth="850" pageHeight="1100" math="0" shadow="0">
            <root>
                <mxCell id="0"/>
                <mxCell id="1" parent="0"/>
                <mxCell id="20" value="users" style="shape=table;startSize=30;container=1;collapsible=0;childLayout=tableLayout;fixedRows=1;rowLines=0;fontStyle=0;strokeColor=default;fontSize=16;perimeterSpacing=1;left=1;right=1;top=0;bottom=0;" vertex="1" parent="1">
                    <mxGeometry x="150" y="110" width="180.42" height="250" as="geometry"/>
                </mxCell>
                <mxCell id="21" value="" style="shape=tableRow;horizontal=0;startSize=0;swimlaneHead=0;swimlaneBody=0;top=0;left=1;bottom=0;right=1;collapsible=0;dropTarget=0;fillColor=none;points=[[0,0.5],[1,0.5]];portConstraint=eastwest;strokeColor=inherit;fontSize=16;noLabel=0;connectable=0;portConstraintRotation=0;fixedWidth=0;resizable=1;resizeWidth=1;resizeHeight=1;" vertex="1" parent="20">
                    <mxGeometry y="30" width="180.42" height="30" as="geometry"/>
                </mxCell>
                <mxCell id="22" value="id" style="shape=partialRectangle;html=1;whiteSpace=wrap;connectable=0;fillColor=none;top=0;left=1;bottom=0;right=1;overflow=hidden;pointerEvents=1;strokeColor=inherit;fontSize=16;noLabel=0;portConstraintRotation=0;fixedWidth=0;resizable=1;resizeWidth=1;resizeHeight=1;align=left;spacingLeft=10;" vertex="1" parent="21">
                    <mxGeometry width="120" height="30" as="geometry">
                        <mxRectangle width="120" height="30" as="alternateBounds"/>
                    </mxGeometry>
                </mxCell>
                <mxCell id="23" value="int" style="shape=partialRectangle;html=1;whiteSpace=wrap;connectable=0;fillColor=none;top=0;left=1;bottom=0;right=1;align=left;spacingLeft=6;overflow=hidden;strokeColor=inherit;fontSize=16;noLabel=0;portConstraintRotation=0;fixedWidth=0;resizable=1;resizeWidth=1;resizeHeight=1;" vertex="1" parent="21">
                    <mxGeometry x="120" width="60" height="30" as="geometry">
                        <mxRectangle width="60" height="30" as="alternateBounds"/>
                    </mxGeometry>
                </mxCell>
                <mxCell id="24" value="" style="shape=tableRow;horizontal=0;startSize=0;swimlaneHead=0;swimlaneBody=0;top=0;left=1;bottom=0;right=1;collapsible=0;dropTarget=0;fillColor=none;points=[[0,0.5],[1,0.5]];portConstraint=eastwest;strokeColor=inherit;fontSize=16;noLabel=0;connectable=0;portConstraintRotation=0;fixedWidth=0;resizable=1;resizeWidth=1;resizeHeight=1;" vertex="1" parent="20">
                    <mxGeometry y="60" width="180.42" height="30" as="geometry"/>
                </mxCell>
                <mxCell id="25" value="name" style="shape=partialRectangle;html=1;whiteSpace=wrap;connectable=0;fillColor=none;top=0;left=1;bottom=0;right=1;overflow=hidden;strokeColor=inherit;fontSize=16;noLabel=0;portConstraintRotation=0;fixedWidth=0;resizable=1;resizeWidth=1;resizeHeight=1;align=left;spacingLeft=10;" vertex="1" parent="24">
                    <mxGeometry width="120" height="30" as="geometry">
                        <mxRectangle width="120" height="30" as="alternateBounds"/>
                    </mxGeometry>
                </mxCell>
                <mxCell id="26" value="string" style="shape=partialRectangle;html=1;whiteSpace=wrap;connectable=0;fillColor=none;top=0;left=1;bottom=0;right=1;align=left;spacingLeft=6;overflow=hidden;strokeColor=inherit;fontSize=16;noLabel=0;portConstraintRotation=0;fixedWidth=0;resizable=1;resizeWidth=1;resizeHeight=1;" vertex="1" parent="24">
                    <mxGeometry x="120" width="60" height="30" as="geometry">
                        <mxRectangle width="60" height="30" as="alternateBounds"/>
                    </mxGeometry>
                </mxCell>
                <mxCell id="27" value="" style="shape=tableRow;horizontal=0;startSize=0;swimlaneHead=0;swimlaneBody=0;top=0;left=1;bottom=0;right=1;collapsible=0;dropTarget=0;fillColor=none;points=[[0,0.5],[1,0.5]];portConstraint=eastwest;strokeColor=inherit;fontSize=16;noLabel=0;connectable=0;portConstraintRotation=0;fixedWidth=0;resizable=1;resizeWidth=1;resizeHeight=1;" vertex="1" parent="20">
                    <mxGeometry y="90" width="180.42" height="30" as="geometry"/>
                </mxCell>
                <mxCell id="28" value="email" style="shape=partialRectangle;html=1;whiteSpace=wrap;connectable=0;fillColor=none;top=0;left=1;bottom=0;right=1;overflow=hidden;strokeColor=inherit;fontSize=16;noLabel=0;portConstraintRotation=0;fixedWidth=0;resizable=1;resizeWidth=1;resizeHeight=1;align=left;spacingTop=0;spacingLeft=10;" vertex="1" parent="27">
                    <mxGeometry width="120" height="30" as="geometry">
                        <mxRectangle width="120" height="30" as="alternateBounds"/>
                    </mxGeometry>
                </mxCell>
                <mxCell id="29" value="int" style="shape=partialRectangle;html=1;whiteSpace=wrap;connectable=0;fillColor=none;top=0;left=1;bottom=0;right=1;align=left;spacingLeft=6;overflow=hidden;strokeColor=inherit;fontSize=16;noLabel=0;portConstraintRotation=0;fixedWidth=0;resizable=1;resizeWidth=1;resizeHeight=1;" vertex="1" parent="27">
                    <mxGeometry x="120" width="60" height="30" as="geometry">
                        <mxRectangle width="60" height="30" as="alternateBounds"/>
                    </mxGeometry>
                </mxCell>
            </root>
        </mxGraphModel>
    </diagram>
</mxfile>